<svg width="116" height="39" viewBox="0 0 116 39" fill="none" xmlns="http://www.w3.org/2000/svg">
<path d="M30.3852 36.5C30.3852 36.5 27.81 35.6854 26.7844 34.0911C25.6713 32.3609 25.5841 28.4703 25.5841 28.4703H20.183C20.183 28.4703 20.0792 32.342 18.9827 34.0911C18.1045 35.492 15.9821 36.5 15.9821 36.5M23.1836 30.8792V35.697M35.9864 26.5981C35.9864 26.5981 41.6221 23.5608 41.6034 26.5981C41.5741 31.3378 34.8517 34.506 31.4585 32.5982C29.7574 31.6417 28.3581 28.5048 32.7857 27.6672M16.7823 24.4554H27.9847M39.6942 24.692C39.6942 24.692 43.0247 22.8385 43.9065 17.2232C44.7883 11.6079 39.1451 6.27104 39.1451 6.27104M4.34478 19.7714C4.34478 19.7714 2.0344 16.7333 3.47025 11.2343C4.90611 5.73538 12.2082 3.11694 12.2082 3.11694M7.98039 26.0614C7.98039 26.0614 14.762 25.434 15.9821 28.4703C16.5664 29.9244 15.9821 32.4852 15.9821 32.4852M11.1811 22.0465C11.1811 22.0465 8.32342 17.0411 8.52119 13.7395C8.76679 9.63924 15.4901 10.59 15.4901 10.59C15.4901 10.59 16.3596 7.07609 17.9556 5.56877C19.2241 4.37072 21.9803 3.46871 21.9803 3.46871M27.6799 9.02031C26.2883 6.04737 24.3422 1.1678 30.4868 2.84046C36.6315 4.51312 34.9983 6.77939 32.3153 8.6543M5.57461 28.4703C5.71875 29.2823 5.99897 30.2155 6.93631 31.0509C7.59912 31.6416 8.12299 31.8437 8.93899 32.1521C10.0338 32.5659 11.7268 32.5861 11.7268 32.5861M22.3495 21.6165C24.8772 17.4125 24.7893 11.3396 22.1445 7.45176C21.0723 5.87559 19.4445 14.7024 17.2697 13.9486C14.7899 13.0891 13.6095 14.5504 13.5738 16.4241C13.5432 18.0233 15.2387 19.0059 18.6077 20.3151M35.9864 22.8495C35.9864 22.8495 38.623 15.8053 35.9864 13.2138C32.6676 9.95191 23.4467 17.0345 27.9847 18.0316C29.8162 18.4341 31.0258 16.5799 32.7857 17.2287C34.2523 17.7693 32.7857 21.2435 31.1854 22.0465" stroke="white" stroke-linecap="round"/>
<path d="M52.0936 20.548C51.9816 20.556 51.8656 20.564 51.7456 20.572C51.6336 20.572 51.5176 20.572 51.3976 20.572C51.2616 20.572 51.1256 20.572 50.9896 20.572C50.8536 20.572 50.7016 20.564 50.5336 20.548V22.984C50.5336 23.24 50.4696 23.4 50.3416 23.464C50.2216 23.52 50.0696 23.548 49.8856 23.548C49.7896 23.548 49.7136 23.54 49.6576 23.524C49.6016 23.516 49.5536 23.496 49.5136 23.464C49.4816 23.424 49.4536 23.368 49.4296 23.296C49.4136 23.224 49.4016 23.124 49.3936 22.996C49.3776 22.852 49.3656 22.644 49.3576 22.372C49.3496 22.092 49.3416 21.732 49.3336 21.292C49.3336 20.852 49.3296 20.32 49.3216 19.696C49.3216 19.064 49.3216 18.324 49.3216 17.476C49.3216 17.148 49.3616 16.832 49.4416 16.528C49.5216 16.216 49.6656 15.944 49.8736 15.712C50.0816 15.472 50.3616 15.28 50.7136 15.136C51.0736 14.992 51.5296 14.92 52.0816 14.92C52.4736 14.92 52.8536 14.964 53.2216 15.052C53.5976 15.14 53.9296 15.292 54.2176 15.508C54.5056 15.724 54.7376 16.016 54.9136 16.384C55.0896 16.752 55.1776 17.212 55.1776 17.764C55.1776 18.5 55.0176 19.072 54.6976 19.48C54.3856 19.88 53.9536 20.164 53.4016 20.332L55.0096 22.54C55.1536 22.732 55.2256 22.928 55.2256 23.128C55.2256 23.288 55.1696 23.412 55.0576 23.5C54.9536 23.596 54.8216 23.644 54.6616 23.644C54.4856 23.644 54.3336 23.596 54.2056 23.5C54.0776 23.396 53.9576 23.264 53.8456 23.104L52.0936 20.548ZM53.9776 17.752C53.9776 17.2 53.8096 16.792 53.4736 16.528C53.1456 16.256 52.6216 16.12 51.9016 16.12C51.6376 16.12 51.4176 16.144 51.2416 16.192C51.0656 16.232 50.9256 16.312 50.8216 16.432C50.7176 16.552 50.6416 16.72 50.5936 16.936C50.5536 17.144 50.5336 17.412 50.5336 17.74C50.5336 17.972 50.5336 18.244 50.5336 18.556C50.5336 18.868 50.5376 19.152 50.5456 19.408C50.7296 19.416 50.9336 19.42 51.1576 19.42C51.3896 19.42 51.6056 19.42 51.8056 19.42C52.0296 19.42 52.2656 19.408 52.5136 19.384C52.7696 19.352 53.0056 19.28 53.2216 19.168C53.4376 19.048 53.6176 18.88 53.7616 18.664C53.9056 18.44 53.9776 18.136 53.9776 17.752ZM61.3339 22.888C61.2539 22.696 61.1659 22.476 61.0699 22.228C60.9819 21.972 60.8859 21.704 60.7819 21.424C60.5419 21.432 60.2899 21.44 60.0259 21.448C59.7619 21.448 59.4939 21.448 59.2219 21.448C58.8779 21.448 58.5659 21.448 58.2859 21.448C58.0059 21.448 57.7499 21.444 57.5179 21.436C57.4219 21.716 57.3299 21.98 57.2419 22.228C57.1539 22.476 57.0699 22.696 56.9899 22.888C56.8299 23.296 56.5979 23.5 56.2939 23.5C56.1819 23.5 56.0739 23.464 55.9699 23.392C55.8739 23.32 55.8259 23.216 55.8259 23.08C55.8259 22.944 55.8499 22.768 55.8979 22.552C55.9459 22.328 56.0059 22.092 56.0779 21.844C56.1579 21.588 56.2419 21.328 56.3299 21.064C56.4179 20.792 56.5019 20.54 56.5819 20.308C56.6619 20.052 56.7739 19.728 56.9179 19.336C57.0699 18.936 57.2299 18.52 57.3979 18.088C57.5659 17.656 57.7339 17.232 57.9019 16.816C58.0699 16.392 58.2219 16.024 58.3579 15.712C58.3899 15.632 58.4299 15.544 58.4779 15.448C58.5259 15.344 58.5819 15.248 58.6459 15.16C58.7179 15.072 58.7939 14.996 58.8739 14.932C58.9619 14.868 59.0579 14.836 59.1619 14.836C59.2659 14.836 59.3619 14.872 59.4499 14.944C59.5379 15.008 59.6139 15.088 59.6779 15.184C59.7499 15.28 59.8099 15.38 59.8579 15.484C59.9139 15.588 59.9579 15.68 59.9899 15.76C60.1179 16.08 60.2619 16.448 60.4219 16.864C60.5899 17.28 60.7539 17.7 60.9139 18.124C61.0819 18.548 61.2379 18.952 61.3819 19.336C61.5259 19.72 61.6419 20.044 61.7299 20.308C61.8019 20.54 61.8819 20.788 61.9699 21.052C62.0659 21.316 62.1539 21.576 62.2339 21.832C62.3139 22.088 62.3779 22.328 62.4259 22.552C62.4819 22.768 62.5099 22.944 62.5099 23.08C62.5099 23.216 62.4579 23.32 62.3539 23.392C62.2579 23.464 62.1539 23.5 62.0419 23.5C61.8979 23.5 61.7659 23.452 61.6459 23.356C61.5259 23.252 61.4219 23.096 61.3339 22.888ZM59.2099 20.248C59.4019 20.248 59.5939 20.252 59.7859 20.26C59.9779 20.26 60.1699 20.264 60.3619 20.272C60.2659 19.992 60.1699 19.712 60.0739 19.432C59.9779 19.152 59.8859 18.884 59.7979 18.628C59.7179 18.372 59.6419 18.136 59.5699 17.92C59.5059 17.696 59.4499 17.5 59.4019 17.332C59.3699 17.228 59.3339 17.144 59.2939 17.08C59.2539 17.016 59.2019 16.984 59.1379 16.984C59.0739 16.984 59.0219 17.02 58.9819 17.092C58.9419 17.156 58.9059 17.24 58.8739 17.344C58.7779 17.672 58.6419 18.1 58.4659 18.628C58.2979 19.148 58.1179 19.696 57.9259 20.272C58.1419 20.264 58.3579 20.26 58.5739 20.26C58.7899 20.252 59.0019 20.248 59.2099 20.248ZM67.9181 23.476C67.7741 23.492 67.5941 23.504 67.3781 23.512C67.1701 23.528 66.9421 23.54 66.6941 23.548C66.4541 23.556 66.1981 23.564 65.9261 23.572C65.6621 23.58 65.4061 23.584 65.1581 23.584C64.7261 23.584 64.3741 23.58 64.1021 23.572C63.8381 23.564 63.6301 23.544 63.4781 23.512C63.3341 23.488 63.2341 23.448 63.1781 23.392C63.1301 23.336 63.1061 23.26 63.1061 23.164C63.1061 22.988 63.1541 22.784 63.2501 22.552C63.3461 22.312 63.4581 22.072 63.5861 21.832C63.7221 21.592 63.8581 21.368 63.9941 21.16C64.1301 20.944 64.2341 20.776 64.3061 20.656L66.9701 16.324C66.8181 16.324 66.7141 16.328 66.6581 16.336C66.6101 16.336 66.5461 16.34 66.4661 16.348C66.3941 16.348 66.2781 16.348 66.1181 16.348C65.9661 16.348 65.7181 16.348 65.3741 16.348C64.8781 16.348 64.4821 16.344 64.1861 16.336C63.8981 16.32 63.6781 16.292 63.5261 16.252C63.3821 16.212 63.2861 16.156 63.2381 16.084C63.1981 16.012 63.1781 15.912 63.1781 15.784C63.1781 15.584 63.2261 15.444 63.3221 15.364C63.4181 15.276 63.6221 15.216 63.9341 15.184C64.0621 15.176 64.2061 15.168 64.3661 15.16C64.5261 15.144 64.6901 15.136 64.8581 15.136C65.0341 15.128 65.2061 15.124 65.3741 15.124C65.5421 15.116 65.6981 15.112 65.8421 15.112C65.9861 15.112 66.1221 15.116 66.2501 15.124C66.3861 15.124 66.5221 15.128 66.6581 15.136C66.8021 15.136 66.9541 15.14 67.1141 15.148C67.2741 15.156 67.4581 15.164 67.6661 15.172C67.7301 15.172 67.8101 15.18 67.9061 15.196C68.0101 15.204 68.1061 15.22 68.1941 15.244C68.2901 15.268 68.3701 15.308 68.4341 15.364C68.4981 15.412 68.5301 15.48 68.5301 15.568C68.5301 15.712 68.4621 15.932 68.3261 16.228C68.1981 16.516 68.0221 16.852 67.7981 17.236C67.5821 17.612 67.3301 18.024 67.0421 18.472C66.7621 18.912 66.4741 19.364 66.1781 19.828C65.8821 20.284 65.5901 20.736 65.3021 21.184C65.0141 21.632 64.7541 22.048 64.5221 22.432C64.6661 22.424 64.8741 22.42 65.1461 22.42C65.4261 22.412 65.6861 22.408 65.9261 22.408C66.1581 22.408 66.4501 22.412 66.8021 22.42C67.1621 22.428 67.5301 22.448 67.9061 22.48C68.0981 22.496 68.2461 22.516 68.3501 22.54C68.4541 22.564 68.5341 22.6 68.5901 22.648C68.6461 22.688 68.6781 22.74 68.6861 22.804C68.7021 22.868 68.7101 22.948 68.7101 23.044C68.7101 23.108 68.7061 23.164 68.6981 23.212C68.6901 23.26 68.6621 23.304 68.6141 23.344C68.5661 23.376 68.4861 23.404 68.3741 23.428C68.2701 23.444 68.1181 23.46 67.9181 23.476ZM72.4518 23.704C71.5398 23.704 70.8718 23.456 70.4478 22.96C70.2798 22.768 70.1358 22.524 70.0158 22.228C69.9038 21.924 69.8118 21.532 69.7398 21.052C69.6758 20.572 69.6278 19.98 69.5958 19.276C69.5718 18.564 69.5598 17.7 69.5598 16.684C69.5598 16.356 69.5678 16.088 69.5838 15.88C69.5998 15.664 69.6318 15.496 69.6798 15.376C69.7278 15.248 69.7878 15.16 69.8598 15.112C69.9398 15.064 70.0398 15.04 70.1598 15.04C70.3918 15.04 70.5558 15.144 70.6518 15.352C70.7478 15.56 70.7958 15.92 70.7958 16.432C70.7958 16.608 70.7918 16.764 70.7838 16.9C70.7838 17.036 70.7838 17.176 70.7838 17.32C70.7838 17.456 70.7798 17.608 70.7718 17.776C70.7718 17.944 70.7718 18.148 70.7718 18.388C70.7718 19.188 70.7958 19.852 70.8438 20.38C70.8998 20.908 70.9918 21.332 71.1198 21.652C71.2478 21.964 71.4198 22.184 71.6358 22.312C71.8598 22.44 72.1358 22.504 72.4638 22.504C72.8078 22.504 73.0918 22.436 73.3158 22.3C73.5478 22.156 73.7318 21.92 73.8678 21.592C74.0038 21.256 74.0998 20.812 74.1558 20.26C74.2198 19.708 74.2518 19.02 74.2518 18.196C74.2518 17.836 74.2478 17.528 74.2398 17.272C74.2398 17.016 74.2398 16.784 74.2398 16.576C74.2398 16.28 74.2478 16.032 74.2638 15.832C74.2878 15.632 74.3198 15.476 74.3598 15.364C74.4078 15.244 74.4718 15.16 74.5518 15.112C74.6318 15.064 74.7318 15.04 74.8518 15.04C74.9718 15.04 75.0718 15.064 75.1518 15.112C75.2318 15.16 75.2958 15.244 75.3438 15.364C75.3918 15.484 75.4238 15.652 75.4398 15.868C75.4558 16.076 75.4638 16.348 75.4638 16.684C75.4638 18.092 75.4198 19.252 75.3318 20.164C75.2438 21.068 75.0878 21.784 74.8638 22.312C74.6398 22.832 74.3318 23.196 73.9398 23.404C73.5558 23.604 73.0598 23.704 72.4518 23.704ZM80.1235 21.46C79.7555 20.652 79.4275 19.872 79.1395 19.12C78.8595 18.36 78.6195 17.684 78.4195 17.092C78.2355 18.084 78.0795 19.084 77.9515 20.092C77.8315 21.1 77.6755 22.064 77.4835 22.984C77.4355 23.192 77.3475 23.332 77.2195 23.404C77.0915 23.468 76.9835 23.5 76.8955 23.5C76.7515 23.5 76.6355 23.456 76.5475 23.368C76.4675 23.28 76.4275 23.168 76.4275 23.032C76.4275 22.848 76.4475 22.568 76.4875 22.192C76.5355 21.808 76.5915 21.376 76.6555 20.896C76.7275 20.416 76.8075 19.912 76.8955 19.384C76.9835 18.856 77.0715 18.348 77.1595 17.86C77.2555 17.364 77.3435 16.916 77.4235 16.516C77.5115 16.116 77.5875 15.808 77.6515 15.592C77.7555 15.224 77.9675 15.04 78.2875 15.04C78.4795 15.04 78.6435 15.136 78.7795 15.328C78.9155 15.512 79.0595 15.8 79.2115 16.192C79.3715 16.576 79.5595 17.064 79.7755 17.656C79.9995 18.248 80.2875 18.944 80.6395 19.744C80.9835 18.944 81.2595 18.252 81.4675 17.668C81.6835 17.076 81.8635 16.588 82.0075 16.204C82.1595 15.812 82.3035 15.524 82.4395 15.34C82.5755 15.148 82.7435 15.052 82.9435 15.052C83.1275 15.052 83.2675 15.1 83.3635 15.196C83.4595 15.284 83.5315 15.42 83.5795 15.604C83.6355 15.828 83.7035 16.14 83.7835 16.54C83.8635 16.932 83.9475 17.372 84.0355 17.86C84.1315 18.34 84.2235 18.844 84.3115 19.372C84.3995 19.9 84.4795 20.404 84.5515 20.884C84.6235 21.364 84.6795 21.8 84.7195 22.192C84.7675 22.576 84.7915 22.872 84.7915 23.08C84.7915 23.208 84.7475 23.312 84.6595 23.392C84.5715 23.464 84.4595 23.5 84.3235 23.5C84.2355 23.5 84.1275 23.468 83.9995 23.404C83.8715 23.332 83.7835 23.192 83.7355 22.984C83.6395 22.528 83.5515 22.056 83.4715 21.568C83.3995 21.08 83.3275 20.588 83.2555 20.092C83.1915 19.588 83.1275 19.088 83.0635 18.592C82.9995 18.088 82.9315 17.588 82.8595 17.092C82.7555 17.412 82.6355 17.764 82.4995 18.148C82.3635 18.532 82.2195 18.92 82.0675 19.312C81.9155 19.696 81.7595 20.076 81.5995 20.452C81.4395 20.828 81.2835 21.168 81.1315 21.472C81.0755 21.576 80.9995 21.656 80.9035 21.712C80.8155 21.76 80.7235 21.784 80.6275 21.784C80.5235 21.784 80.4235 21.76 80.3275 21.712C80.2395 21.656 80.1715 21.572 80.1235 21.46ZM90.8418 22.888C90.7618 22.696 90.6738 22.476 90.5778 22.228C90.4898 21.972 90.3938 21.704 90.2898 21.424C90.0498 21.432 89.7978 21.44 89.5338 21.448C89.2698 21.448 89.0018 21.448 88.7298 21.448C88.3858 21.448 88.0738 21.448 87.7938 21.448C87.5138 21.448 87.2578 21.444 87.0258 21.436C86.9298 21.716 86.8378 21.98 86.7498 22.228C86.6618 22.476 86.5778 22.696 86.4978 22.888C86.3378 23.296 86.1058 23.5 85.8018 23.5C85.6898 23.5 85.5818 23.464 85.4778 23.392C85.3818 23.32 85.3338 23.216 85.3338 23.08C85.3338 22.944 85.3578 22.768 85.4058 22.552C85.4538 22.328 85.5138 22.092 85.5858 21.844C85.6658 21.588 85.7498 21.328 85.8378 21.064C85.9258 20.792 86.0098 20.54 86.0898 20.308C86.1698 20.052 86.2818 19.728 86.4258 19.336C86.5778 18.936 86.7378 18.52 86.9058 18.088C87.0738 17.656 87.2418 17.232 87.4098 16.816C87.5778 16.392 87.7298 16.024 87.8658 15.712C87.8978 15.632 87.9378 15.544 87.9858 15.448C88.0338 15.344 88.0898 15.248 88.1538 15.16C88.2258 15.072 88.3018 14.996 88.3818 14.932C88.4698 14.868 88.5658 14.836 88.6698 14.836C88.7738 14.836 88.8698 14.872 88.9578 14.944C89.0458 15.008 89.1218 15.088 89.1858 15.184C89.2578 15.28 89.3178 15.38 89.3658 15.484C89.4218 15.588 89.4658 15.68 89.4978 15.76C89.6258 16.08 89.7698 16.448 89.9298 16.864C90.0978 17.28 90.2618 17.7 90.4218 18.124C90.5898 18.548 90.7458 18.952 90.8898 19.336C91.0338 19.72 91.1498 20.044 91.2378 20.308C91.3098 20.54 91.3898 20.788 91.4778 21.052C91.5738 21.316 91.6618 21.576 91.7418 21.832C91.8218 22.088 91.8858 22.328 91.9338 22.552C91.9898 22.768 92.0178 22.944 92.0178 23.08C92.0178 23.216 91.9658 23.32 91.8618 23.392C91.7658 23.464 91.6618 23.5 91.5498 23.5C91.4058 23.5 91.2738 23.452 91.1537 23.356C91.0338 23.252 90.9298 23.096 90.8418 22.888ZM88.7178 20.248C88.9098 20.248 89.1018 20.252 89.2938 20.26C89.4858 20.26 89.6778 20.264 89.8698 20.272C89.7738 19.992 89.6778 19.712 89.5818 19.432C89.4858 19.152 89.3938 18.884 89.3058 18.628C89.2258 18.372 89.1498 18.136 89.0778 17.92C89.0138 17.696 88.9578 17.5 88.9098 17.332C88.8778 17.228 88.8418 17.144 88.8018 17.08C88.7618 17.016 88.7098 16.984 88.6458 16.984C88.5818 16.984 88.5298 17.02 88.4898 17.092C88.4498 17.156 88.4138 17.24 88.3818 17.344C88.2858 17.672 88.1498 18.1 87.9738 18.628C87.8058 19.148 87.6258 19.696 87.4338 20.272C87.6498 20.264 87.8658 20.26 88.0818 20.26C88.2978 20.252 88.5098 20.248 88.7178 20.248ZM96.681 16.204C96.457 16.22 96.217 16.232 95.961 16.24C95.713 16.248 95.437 16.256 95.133 16.264C95.141 16.48 95.149 16.684 95.157 16.876C95.165 17.06 95.173 17.248 95.181 17.44C95.189 17.632 95.193 17.832 95.193 18.04C95.201 18.248 95.205 18.48 95.205 18.736C95.205 19.096 95.205 19.444 95.205 19.78C95.205 20.108 95.201 20.44 95.193 20.776C95.185 21.104 95.177 21.436 95.169 21.772C95.161 22.108 95.149 22.456 95.133 22.816C95.125 23.008 95.105 23.156 95.073 23.26C95.049 23.364 95.013 23.444 94.965 23.5C94.917 23.556 94.861 23.588 94.797 23.596C94.733 23.612 94.661 23.62 94.581 23.62C94.437 23.62 94.313 23.572 94.209 23.476C94.113 23.372 94.057 23.156 94.041 22.828C94.025 22.54 94.013 22.236 94.005 21.916C94.005 21.596 94.001 21.252 93.993 20.884C93.985 20.516 93.981 20.12 93.981 19.696C93.981 19.264 93.981 18.788 93.981 18.268C93.981 17.828 93.981 17.444 93.981 17.116C93.989 16.788 94.001 16.504 94.017 16.264H93.525C93.189 16.264 92.901 16.26 92.661 16.252C92.429 16.244 92.237 16.224 92.085 16.192C91.933 16.152 91.821 16.092 91.749 16.012C91.685 15.932 91.653 15.82 91.653 15.676C91.653 15.604 91.661 15.54 91.677 15.484C91.693 15.42 91.729 15.364 91.785 15.316C91.841 15.26 91.917 15.216 92.013 15.184C92.117 15.152 92.249 15.128 92.409 15.112C92.561 15.104 92.697 15.096 92.817 15.088C92.937 15.08 93.057 15.072 93.177 15.064C93.297 15.056 93.421 15.052 93.549 15.052C93.677 15.052 93.825 15.052 93.993 15.052C94.465 15.052 94.909 15.056 95.325 15.064C95.749 15.072 96.197 15.088 96.669 15.112C96.861 15.128 97.009 15.152 97.113 15.184C97.217 15.208 97.297 15.244 97.353 15.292C97.409 15.34 97.441 15.396 97.449 15.46C97.465 15.524 97.473 15.596 97.473 15.676C97.473 15.82 97.421 15.94 97.317 16.036C97.221 16.132 97.009 16.188 96.681 16.204ZM101.17 23.62C100.69 23.62 100.238 23.524 99.8144 23.332C99.3984 23.14 99.0344 22.864 98.7224 22.504C98.4104 22.136 98.1624 21.688 97.9784 21.16C97.8024 20.632 97.7144 20.032 97.7144 19.36C97.7144 18.728 97.7904 18.148 97.9424 17.62C98.1024 17.092 98.3344 16.636 98.6384 16.252C98.9504 15.868 99.3344 15.572 99.7904 15.364C100.246 15.148 100.774 15.04 101.374 15.04C101.862 15.04 102.326 15.128 102.766 15.304C103.206 15.48 103.59 15.744 103.918 16.096C104.254 16.448 104.518 16.888 104.71 17.416C104.902 17.944 104.998 18.56 104.998 19.264C104.998 19.848 104.918 20.404 104.758 20.932C104.606 21.46 104.37 21.924 104.05 22.324C103.738 22.716 103.342 23.032 102.862 23.272C102.382 23.504 101.818 23.62 101.17 23.62ZM101.194 22.492C101.634 22.492 102.018 22.404 102.346 22.228C102.674 22.044 102.946 21.804 103.162 21.508C103.378 21.212 103.538 20.872 103.642 20.488C103.746 20.096 103.798 19.696 103.798 19.288C103.798 18.792 103.73 18.352 103.594 17.968C103.466 17.576 103.29 17.248 103.066 16.984C102.842 16.72 102.582 16.52 102.286 16.384C101.99 16.24 101.674 16.168 101.338 16.168C100.938 16.168 100.586 16.252 100.282 16.42C99.9864 16.588 99.7344 16.816 99.5264 17.104C99.3264 17.392 99.1744 17.732 99.0704 18.124C98.9664 18.508 98.9144 18.92 98.9144 19.36C98.9144 19.832 98.9744 20.264 99.0944 20.656C99.2144 21.04 99.3744 21.368 99.5744 21.64C99.7824 21.912 100.026 22.124 100.306 22.276C100.586 22.42 100.882 22.492 101.194 22.492ZM108.965 20.548C108.853 20.556 108.737 20.564 108.617 20.572C108.505 20.572 108.389 20.572 108.269 20.572C108.133 20.572 107.997 20.572 107.861 20.572C107.725 20.572 107.573 20.564 107.405 20.548V22.984C107.405 23.24 107.341 23.4 107.213 23.464C107.093 23.52 106.941 23.548 106.757 23.548C106.661 23.548 106.585 23.54 106.529 23.524C106.473 23.516 106.425 23.496 106.385 23.464C106.353 23.424 106.325 23.368 106.301 23.296C106.285 23.224 106.273 23.124 106.265 22.996C106.249 22.852 106.237 22.644 106.229 22.372C106.221 22.092 106.213 21.732 106.205 21.292C106.205 20.852 106.201 20.32 106.193 19.696C106.193 19.064 106.193 18.324 106.193 17.476C106.193 17.148 106.233 16.832 106.313 16.528C106.393 16.216 106.537 15.944 106.745 15.712C106.953 15.472 107.233 15.28 107.585 15.136C107.945 14.992 108.401 14.92 108.953 14.92C109.345 14.92 109.725 14.964 110.093 15.052C110.469 15.14 110.801 15.292 111.089 15.508C111.377 15.724 111.609 16.016 111.785 16.384C111.961 16.752 112.049 17.212 112.049 17.764C112.049 18.5 111.889 19.072 111.569 19.48C111.257 19.88 110.825 20.164 110.273 20.332L111.881 22.54C112.025 22.732 112.097 22.928 112.097 23.128C112.097 23.288 112.041 23.412 111.929 23.5C111.825 23.596 111.693 23.644 111.533 23.644C111.357 23.644 111.205 23.596 111.077 23.5C110.949 23.396 110.829 23.264 110.717 23.104L108.965 20.548ZM110.849 17.752C110.849 17.2 110.681 16.792 110.345 16.528C110.017 16.256 109.493 16.12 108.773 16.12C108.509 16.12 108.289 16.144 108.113 16.192C107.937 16.232 107.797 16.312 107.693 16.432C107.589 16.552 107.513 16.72 107.465 16.936C107.425 17.144 107.405 17.412 107.405 17.74C107.405 17.972 107.405 18.244 107.405 18.556C107.405 18.868 107.409 19.152 107.417 19.408C107.601 19.416 107.805 19.42 108.029 19.42C108.261 19.42 108.477 19.42 108.677 19.42C108.901 19.42 109.137 19.408 109.385 19.384C109.641 19.352 109.877 19.28 110.093 19.168C110.309 19.048 110.489 18.88 110.633 18.664C110.777 18.44 110.849 18.136 110.849 17.752Z" fill="white"/>
</svg>
